<svg width="16" height="16" viewBox="0 0 16 16" fill="none" xmlns="http://www.w3.org/2000/svg">
<path d="M4.29833 1.125H4.04167C3.26812 1.125 2.52625 1.43229 1.97927 1.97927C1.43229 2.52625 1.125 3.26812 1.125 4.04167V12.2308C1.125 12.9321 1.40358 13.6047 1.89946 14.1005C2.39534 14.5964 3.06789 14.875 3.76917 14.875M4.29833 1.125V3.16C4.29833 3.60203 4.47393 4.02595 4.78649 4.33851C5.09905 4.65107 5.52297 4.82667 5.965 4.82667H7.92C8.36203 4.82667 8.78595 4.65107 9.09851 4.33851C9.41107 4.02595 9.58667 3.60203 9.58667 3.16V1.125M4.29833 1.125H9.58667M3.76917 14.875V10.5C3.76917 9.83696 4.03256 9.20107 4.5014 8.73223C4.97024 8.26339 5.60613 8 6.26917 8H9.73083C10.3939 8 11.0298 8.26339 11.4986 8.73223C11.9674 9.20107 12.2308 9.83696 12.2308 10.5V14.875M3.76917 14.875H12.2308M9.58667 1.125H9.60833C9.93675 1.12496 10.262 1.18963 10.5654 1.31532C10.8688 1.441 11.1445 1.62524 11.3767 1.8575L14.0208 4.50167C14.2917 4.77253 14.5065 5.09408 14.6531 5.44796C14.7996 5.80185 14.875 6.18113 14.875 6.56417V12.2308C14.875 12.9321 14.5964 13.6047 14.1005 14.1005C13.6047 14.5964 12.9321 14.875 12.2308 14.875" stroke="white" stroke-width="1.5" stroke-linecap="round" stroke-linejoin="round"/>
</svg>
